<!DOCTYPE svg PUBLIC "-//W3C//DTD SVG 1.1//EN" "http://www.w3.org/Graphics/SVG/1.1/DTD/svg11.dtd">
<svg version="1.1" id="Слой_1" xmlns="http://www.w3.org/2000/svg" xmlns:xlink="http://www.w3.org/1999/xlink" x="0px" y="0px"
	 viewBox="0 0 110 110" enable-background="new 0 0 110 110" xml:space="preserve">
<path d="M70.896,40.231c0.084,0.168,0.141,0.31,0.197,0.479c0.028,0.085,0,0.169-0.085,0.197c-0.704,0.254-1.438,0.227-2.17,0.028
	c-0.678-0.197-1.354-0.564-1.917-0.958c-0.677-0.423-1.07-0.874-1.408-1.297c-0.255-0.311-0.509-0.62-0.847-0.847
	c-1.438-1.015-3.071,0.113-4.171,0.874c-0.253,0.169-0.508,0.311-0.762,0.451c-0.28,0.141-0.535,0.282-0.76,0.451
	c0.027,0.31,0.168,0.479,0.31,0.62v0.027c0.112,0.112,0.196,0.197,0.253,0.311c0.059,0.084,0.085,0.197,0.113,0.367v0.027
	c0,0.085-0.057,0.142-0.142,0.142c-0.452,0.027-0.846,0.027-1.212-0.057c-0.365-0.085-0.732-0.226-1.156-0.424
	c-0.057-0.027-0.141-0.056-0.168-0.084l-0.029-0.027h-0.057c-0.057,0-0.732,0.169-1.324,0.338c-0.367,0.084-0.705,0.197-0.902,0.254
	c0.169,0.479,0.423,0.731,0.621,0.985l0.056,0.028c0.253,0.312,0.423,0.479,0.451,0.93c0.026,0.085-0.026,0.142-0.085,0.169
	c-0.676,0.226-1.549,0.085-2.423-0.226c-1.212-0.423-2.48-1.185-3.241-1.748c-0.084-0.028-0.197-0.028-0.338-0.056
	c-0.169-0.028-0.338-0.057-0.479-0.057c-0.198-0.027-0.339-0.027-0.48-0.056c-0.845-0.141-1.888-0.423-3.016-0.79
	c-1.042-0.338-2.114-0.789-3.128-1.268c-0.705-0.338-1.465-0.762-2.199-1.24c-0.733-0.507-1.409-1.071-1.889-1.691
	c-0.028-0.027-0.028-0.056-0.028-0.111c0.028-0.763,0.817-1.494,1.86-2.144c1.579-1.014,3.805-1.86,4.764-2.142
	c0.591-0.198,1.211-0.367,1.804-0.479c0.564-0.112,1.156-0.226,1.691-0.253c0.563-0.056,0.592-0.084,0.705-0.226h0.028
	c0.084-0.084,0.169-0.169,0.338-0.311c0.141-0.141,0.366-0.281,0.705-0.479c0.253-0.169,0.761-0.423,1.325-0.677
	c0.451-0.197,0.93-0.366,1.381-0.508c0.282-0.084,0.592-0.168,0.931-0.225c0.31-0.028,0.648,0,0.958,0.113
	c0.029,0,0.057,0.026,0.085,0.084c0.141,0.452-0.112,0.731-0.366,1.014L54.634,29.8c-0.169,0.169-0.339,0.367-0.479,0.593
	c-0.113,0.196-0.198,0.45-0.254,0.705l0.31,0.056c0.423,0.084,0.874,0.169,1.297,0.282c0.141,0.056,0.254,0.084,0.338,0.084
	c0.112,0,0.197-0.028,0.338-0.084c0.17-0.113,0.366-0.197,0.564-0.311c0.197-0.112,0.422-0.197,0.646-0.282
	c0.282-0.056,0.508-0.112,0.762-0.141c0.254,0,0.508,0.028,0.789,0.141c0.084,0.028,0.113,0.113,0.084,0.17
	c-0.057,0.141-0.113,0.253-0.168,0.338c-0.057,0.085-0.143,0.17-0.228,0.281c-0.084,0.085-0.168,0.169-0.253,0.282
	c-0.027,0.085-0.084,0.197-0.084,0.338c0.057,0.028,0.112,0.058,0.169,0.084c0.085,0.058,0.169,0.085,0.255,0.113l0.141,0.028
	c0.057,0.027,0.113,0.056,0.142,0.056c0.169,0.084,0.366,0.169,0.563,0.282c0.227,0.111,0.423,0.197,0.647,0.338
	c1.636,0.846,3.89,2.001,4.511,1.015c0.141-0.169,0.227-0.339,0.338-0.479c0.846-1.354,1.324-2.059,3.297-2.848
	c0.396-0.169,0.817-0.31,1.27-0.338c0.451-0.056,0.9-0.027,1.296,0.168c0.058,0,0.112,0.057,0.112,0.113
	c0,0.253-0.225,0.732-0.365,1.014l-0.027,0.085c-0.058,0.142-0.113,0.282-0.17,0.395c-0.479,1.127-1.24,2.903-2.227,3.467
	c0.422,0.227,0.732,0.592,1.016,0.986c0.31,0.508,0.563,1.099,0.816,1.69l0.141,0.396c0.057,0.142,0.112,0.254,0.17,0.367
	c0.084,0.196,0.197,0.395,0.281,0.592C70.756,39.92,70.813,40.09,70.896,40.231"/>
<path d="M59.74,95.707c9.414-1.083,17.877-5.348,24.262-11.732c4.172-4.172,7.439-9.246,9.498-14.882h-0.479
	c-2.06,5.522-5.271,10.484-9.357,14.571c-6.311,6.311-14.711,10.549-24.066,11.605L59.74,95.707z M16.95,69.093h-0.479
	c2.058,5.638,5.327,10.71,9.526,14.882c6.358,6.381,14.81,10.646,24.234,11.73l0.144-0.439c-9.361-1.06-17.738-5.297-24.068-11.603
	C22.221,79.577,19.008,74.616,16.95,69.093 M94.432,43.698c-1.945-6.792-5.582-12.853-10.43-17.7
	c-7.441-7.44-17.7-12.007-29.002-12.007c-11.33,0-21.589,4.566-29.002,12.007c-4.933,4.933-8.625,11.105-10.542,18.01
	c0.142,0.028,0.31,0.084,0.451,0.113c1.889-6.821,5.524-12.937,10.4-17.813C33.664,18.98,43.782,14.442,55,14.442
	c11.189,0,21.336,4.538,28.665,11.866c4.765,4.792,8.371,10.738,10.287,17.39H94.432L94.432,43.698z"/>
<path d="M36.172,87.751l-1.465-0.958l-1.015,1.549l1.748,1.129l-0.282,0.45l-2.367-1.493l2.79-4.341l2.34,1.493l-0.311,0.451
	l-1.719-1.1l-0.902,1.381l1.493,0.959L36.172,87.751z M38.793,90.314c0.084-0.196,0.113-0.422,0.084-0.619
	c-0.057-0.197-0.198-0.422-0.451-0.676c-0.367-0.367-0.621-0.705-0.733-1.043c-0.141-0.312-0.084-0.679,0.085-1.017
	c0.197-0.364,0.479-0.592,0.846-0.705c0.366-0.112,0.761-0.057,1.156,0.142c0.422,0.254,0.705,0.537,0.817,0.931
	c0.141,0.396,0.085,0.79-0.112,1.185h-0.028l-0.62-0.311c0.141-0.281,0.197-0.535,0.141-0.762c-0.084-0.252-0.226-0.422-0.451-0.535
	c-0.226-0.111-0.423-0.141-0.648-0.055c-0.198,0.055-0.338,0.226-0.451,0.422c-0.113,0.196-0.113,0.395-0.056,0.592
	c0.056,0.227,0.226,0.451,0.479,0.732c0.367,0.338,0.591,0.678,0.676,1.016c0.113,0.338,0.084,0.676-0.113,1.043
	c-0.169,0.365-0.451,0.592-0.845,0.676c-0.367,0.086-0.761,0.029-1.184-0.197c-0.395-0.197-0.677-0.508-0.874-0.9
	c-0.169-0.396-0.141-0.789,0.112-1.24l0.62,0.31c-0.141,0.312-0.197,0.593-0.112,0.817c0.112,0.227,0.254,0.423,0.507,0.535
	c0.226,0.142,0.451,0.169,0.676,0.113C38.512,90.682,38.681,90.541,38.793,90.314 M44.458,89.02l-1.269-0.508l-1.69,4.313
	l-0.676-0.281l1.691-4.284l-1.268-0.479l0.197-0.536l3.213,1.269L44.458,89.02z M43.698,93.585l1.156-5.044l1.437,0.338
	c0.536,0.112,0.93,0.422,1.184,0.9c0.254,0.479,0.31,1.043,0.169,1.664l-0.169,0.731c-0.141,0.648-0.423,1.101-0.874,1.438
	c-0.451,0.31-0.93,0.424-1.465,0.281L43.698,93.585z M45.445,89.244l-0.93,3.947l0.733,0.168c0.338,0.084,0.648,0,0.93-0.254
	c0.282-0.252,0.479-0.619,0.592-1.099l0.169-0.706c0.112-0.479,0.084-0.9-0.056-1.238c-0.141-0.367-0.366-0.564-0.733-0.648
	L45.445,89.244z M66.584,93.416l-2.875,0.816l-0.141-0.451l0.902-2.254c0.141-0.396,0.225-0.676,0.254-0.93
	c0.026-0.227,0.026-0.423-0.029-0.621c-0.084-0.254-0.197-0.451-0.338-0.563c-0.17-0.113-0.338-0.142-0.563-0.086
	c-0.226,0.086-0.396,0.228-0.479,0.45c-0.084,0.228-0.057,0.451,0.027,0.762l-0.703,0.17c-0.143-0.423-0.113-0.816,0.057-1.186
	c0.197-0.338,0.507-0.592,0.957-0.731c0.425-0.112,0.789-0.084,1.101,0.086c0.312,0.197,0.507,0.478,0.647,0.899
	c0.084,0.283,0.084,0.564,0,0.875c-0.057,0.31-0.196,0.677-0.395,1.154l-0.563,1.635l2-0.563L66.584,93.416z M69.713,90.344
	c0.197,0.564,0.253,1.043,0.112,1.467c-0.112,0.422-0.394,0.703-0.817,0.873c-0.451,0.17-0.845,0.142-1.238-0.057
	c-0.367-0.227-0.678-0.592-0.902-1.156l-0.535-1.381c-0.227-0.535-0.253-1.043-0.143-1.438c0.143-0.422,0.424-0.732,0.847-0.901
	c0.424-0.169,0.846-0.142,1.212,0.056c0.395,0.228,0.705,0.621,0.9,1.156L69.713,90.344z M68.443,89.132
	c-0.141-0.338-0.338-0.62-0.535-0.761c-0.227-0.17-0.449-0.197-0.676-0.113c-0.228,0.084-0.367,0.282-0.424,0.536
	c-0.027,0.253,0,0.563,0.17,0.931l0.621,1.577c0.141,0.339,0.309,0.62,0.506,0.79c0.227,0.141,0.451,0.17,0.678,0.084
	c0.253-0.084,0.395-0.254,0.422-0.535c0.057-0.254,0-0.563-0.141-0.93L68.443,89.132z M73.15,90.768l-0.648,0.311l-2.057-4.031
	l-0.873,0.508l-0.254-0.451l1.465-0.986L73.15,90.768z M75.406,84.988c0.141,0.227,0.197,0.479,0.197,0.705
	c0,0.254-0.086,0.479-0.197,0.678c0.281-0.057,0.535-0.029,0.789,0.084c0.253,0.084,0.479,0.254,0.619,0.507
	c0.254,0.396,0.338,0.79,0.227,1.157c-0.085,0.365-0.338,0.676-0.705,0.93c-0.395,0.253-0.789,0.338-1.184,0.281
	c-0.396-0.057-0.705-0.281-0.959-0.678c-0.17-0.252-0.254-0.508-0.227-0.789c0.028-0.252,0.113-0.535,0.311-0.76
	c-0.254,0.057-0.508,0.027-0.732-0.084c-0.227-0.086-0.423-0.254-0.564-0.48c-0.225-0.365-0.309-0.732-0.196-1.1
	c0.086-0.338,0.312-0.619,0.677-0.873c0.366-0.197,0.705-0.281,1.043-0.228C74.871,84.396,75.152,84.622,75.406,84.988
	 M76.195,87.328c-0.141-0.227-0.338-0.367-0.563-0.451c-0.226-0.057-0.452-0.027-0.649,0.084c-0.196,0.143-0.309,0.339-0.364,0.564
	c-0.028,0.254,0.026,0.479,0.169,0.731c0.17,0.255,0.365,0.396,0.593,0.451c0.226,0.058,0.45,0.028,0.647-0.112
	c0.197-0.142,0.311-0.311,0.365-0.535C76.42,87.836,76.363,87.582,76.195,87.328 M74.786,85.412
	c-0.142-0.227-0.31-0.367-0.479-0.424c-0.197-0.057-0.394-0.057-0.535,0.057c-0.196,0.113-0.28,0.281-0.338,0.479
	c-0.027,0.199,0.027,0.425,0.17,0.621c0.17,0.228,0.338,0.366,0.535,0.451c0.197,0.057,0.396,0.027,0.563-0.113
	c0.17-0.084,0.255-0.252,0.282-0.45C74.982,85.834,74.927,85.639,74.786,85.412"/>
<path d="M32.818,27.632c-0.169-0.169-0.338-0.281-0.535-0.31c-0.226-0.028-0.479,0.028-0.818,0.169
	c-0.479,0.197-0.874,0.31-1.24,0.31c-0.338-0.027-0.648-0.169-0.93-0.479c-0.253-0.31-0.366-0.648-0.338-1.042
	c0.056-0.396,0.226-0.732,0.592-1.042c0.338-0.31,0.732-0.452,1.127-0.423c0.423,0.027,0.789,0.226,1.042,0.563h0.028l-0.536,0.479
	c-0.197-0.227-0.423-0.367-0.648-0.396c-0.254-0.027-0.479,0.028-0.677,0.197c-0.198,0.169-0.282,0.367-0.282,0.592
	c0,0.197,0.085,0.396,0.253,0.591c0.141,0.17,0.31,0.254,0.536,0.254c0.197,0.027,0.479-0.028,0.817-0.168
	c0.479-0.198,0.874-0.282,1.212-0.254c0.366,0,0.676,0.169,0.93,0.479c0.282,0.31,0.395,0.647,0.338,1.042
	c-0.057,0.367-0.253,0.732-0.62,1.043c-0.338,0.282-0.733,0.451-1.156,0.479c-0.423,0-0.817-0.169-1.127-0.563l-0.028-0.028
	l0.535-0.452c0.226,0.282,0.479,0.396,0.733,0.396c0.253,0.028,0.479-0.056,0.705-0.253c0.197-0.169,0.281-0.367,0.31-0.592
	C33.072,28.027,32.988,27.83,32.818,27.632 M35.918,24.108l-1.494,0.958l1.015,1.55l1.748-1.128l0.282,0.452l-2.339,1.521
	l-2.818-4.34l2.338-1.521l0.282,0.479l-1.691,1.127l0.902,1.382l1.465-0.958L35.918,24.108z M40.513,22.531L40.513,22.531
	c0.254,0.451,0.31,0.874,0.198,1.268c-0.141,0.367-0.423,0.677-0.874,0.932c-0.479,0.254-0.93,0.282-1.353,0.141
	c-0.451-0.141-0.817-0.507-1.099-1.043l-0.677-1.268c-0.282-0.535-0.394-1.015-0.282-1.465c0.113-0.452,0.423-0.818,0.874-1.042
	c0.479-0.255,0.902-0.339,1.297-0.227c0.395,0.085,0.705,0.396,0.93,0.846v0.028l-0.592,0.338c-0.198-0.338-0.395-0.536-0.621-0.621
	c-0.226-0.084-0.451-0.027-0.761,0.113c-0.253,0.141-0.423,0.366-0.479,0.648c-0.028,0.31,0.056,0.647,0.253,1.043l0.705,1.268
	c0.197,0.395,0.423,0.676,0.705,0.79c0.282,0.141,0.563,0.112,0.846-0.028c0.254-0.141,0.423-0.338,0.479-0.563
	c0.056-0.227,0-0.508-0.169-0.847L40.513,22.531z M42.26,21.094l0.677,2.144l-0.677,0.197l-1.578-4.934l1.466-0.451
	c0.479-0.169,0.874-0.141,1.212,0c0.338,0.169,0.563,0.479,0.705,0.931c0.112,0.253,0.112,0.507,0.056,0.731
	c-0.056,0.226-0.197,0.452-0.395,0.621c0.282,0,0.507,0.084,0.705,0.253c0.169,0.169,0.282,0.396,0.395,0.677l0.141,0.45
	c0.028,0.142,0.112,0.282,0.169,0.396c0.056,0.113,0.169,0.197,0.253,0.253l0.028,0.084l-0.705,0.226
	c-0.113-0.056-0.198-0.169-0.282-0.31c-0.056-0.141-0.113-0.281-0.169-0.451l-0.141-0.423c-0.084-0.254-0.226-0.479-0.395-0.592
	s-0.366-0.142-0.62-0.057L42.26,21.094z M42.091,20.586l0.761-0.253c0.253-0.085,0.451-0.227,0.535-0.423
	c0.084-0.198,0.084-0.423,0-0.705c-0.084-0.281-0.226-0.479-0.395-0.592c-0.197-0.112-0.423-0.141-0.676-0.056l-0.761,0.253
	L42.091,20.586z M48.292,19.263l-1.691,0.394l0.395,1.804l2.029-0.479l0.113,0.535l-2.706,0.647l-1.155-5.073l2.678-0.619
	l0.141,0.534l-2.001,0.479l0.366,1.606l1.719-0.366L48.292,19.263z M52.943,16.499l-1.381,0.113l0.338,4.623l-0.704,0.056
	l-0.367-4.622l-1.353,0.083l-0.028-0.535l3.438-0.281L52.943,16.499z M59.764,19.148l-0.367,2.199l-0.705-0.113l0.875-5.103
	l1.494,0.253c0.479,0.084,0.844,0.254,1.07,0.563c0.227,0.282,0.311,0.677,0.227,1.127c-0.058,0.282-0.143,0.507-0.311,0.677
	c-0.141,0.169-0.365,0.311-0.621,0.396c0.254,0.112,0.424,0.311,0.51,0.535c0.082,0.227,0.082,0.479,0.027,0.79l-0.057,0.45
	c-0.029,0.142-0.057,0.311-0.029,0.452c0,0.112,0.029,0.253,0.113,0.338l-0.027,0.084l-0.732-0.141
	c-0.057-0.084-0.086-0.226-0.086-0.367c0-0.169,0-0.338,0.029-0.507l0.084-0.423c0.057-0.282,0-0.535-0.084-0.705
	c-0.113-0.197-0.281-0.311-0.508-0.366L59.764,19.148z M59.876,18.613l0.761,0.112c0.281,0.057,0.508,0.027,0.678-0.112
	c0.168-0.141,0.281-0.338,0.338-0.62c0.027-0.282,0-0.536-0.112-0.733c-0.113-0.169-0.281-0.281-0.563-0.338l-0.789-0.142
	L59.876,18.613z M66.049,20.39l-1.691-0.508l-0.506,1.805l1.973,0.563l-0.143,0.536l-2.677-0.789l1.438-4.961l2.678,0.761
	l-0.169,0.536l-1.974-0.563l-0.451,1.578l1.689,0.507L66.049,20.39z M70.248,22.869L70.248,22.869
	c-0.169,0.479-0.45,0.818-0.816,0.986c-0.395,0.141-0.816,0.141-1.297-0.058c-0.508-0.197-0.846-0.507-0.986-0.93
	c-0.196-0.423-0.17-0.93,0.057-1.494l0.508-1.353c0.227-0.591,0.536-0.958,0.958-1.185c0.396-0.196,0.847-0.226,1.353-0.027
	c0.479,0.196,0.818,0.45,1.016,0.816c0.17,0.366,0.17,0.789-0.027,1.296h-0.027l-0.648-0.225c0.143-0.366,0.169-0.648,0.057-0.874
	c-0.084-0.197-0.252-0.394-0.563-0.507c-0.31-0.112-0.563-0.085-0.817,0.084c-0.252,0.169-0.449,0.451-0.619,0.874l-0.508,1.353
	c-0.17,0.423-0.197,0.762-0.113,1.043c0.058,0.311,0.254,0.506,0.564,0.62c0.281,0.112,0.535,0.112,0.762,0
	c0.196-0.085,0.365-0.338,0.506-0.676L70.248,22.869z M71.318,25.293l-0.647-0.338l2.425-4.594l0.619,0.338L71.318,25.293z
	 M74.223,24.646l-1.1,1.719l-0.592-0.396l2.732-4.368l1.438,0.901c0.424,0.254,0.648,0.592,0.732,0.958
	c0.086,0.396,0,0.79-0.252,1.185c-0.255,0.423-0.563,0.647-0.959,0.761c-0.367,0.084-0.789,0-1.185-0.253L74.223,24.646z
	 M74.504,24.166l0.816,0.507c0.227,0.142,0.479,0.197,0.678,0.112c0.254-0.084,0.423-0.253,0.592-0.507
	c0.141-0.253,0.227-0.479,0.197-0.732c-0.027-0.226-0.141-0.423-0.395-0.592l-0.816-0.507L74.504,24.166z M79.521,28.252
	l-1.324-1.155l-1.213,1.409l1.578,1.354l-0.365,0.423l-2.113-1.832l3.381-3.918l2.086,1.804l-0.338,0.423l-1.578-1.353l-1.072,1.269
	l1.326,1.156L79.521,28.252z"/>
<path d="M54.972,8.523c12.853,0,24.463,5.186,32.864,13.614c5.891,5.861,10.174,13.303,12.26,21.617h-0.902
	c-2.028-8.089-6.256-15.305-11.949-21.025C78.984,14.471,67.57,9.368,54.972,9.368c-12.6,0-23.985,5.103-32.244,13.36
	c-5.693,5.692-9.893,12.909-11.95,20.97H9.904c2.058-8.314,6.342-15.728,12.204-21.561C30.536,13.709,42.148,8.523,54.972,8.523
	 M99.307,68.98c-2.254,7.215-6.257,13.668-11.471,18.883c-8.398,8.398-20.012,13.613-32.864,13.613
	c-12.824,0-24.436-5.213-32.864-13.613c-5.186-5.187-9.132-11.611-11.415-18.771h0.902c2.254,6.933,6.088,13.134,11.133,18.15
	c8.258,8.258,19.645,13.358,32.244,13.358c12.598,0,24.012-5.102,32.271-13.358c5.017-5.045,8.905-11.246,11.134-18.181
	C98.688,69.064,98.997,69.035,99.307,68.98"/>
<path fill="#00B7CE" d="M9.313,58.975v7.215H5.141V46.602H9.65c1.776,0,3.129,0.226,3.974,0.676
	c0.874,0.451,1.325,1.381,1.325,2.791v5.438c0,1.296-0.367,2.197-1.071,2.732C13.173,58.777,11.652,59.002,9.313,58.975
	 M10.75,55.142v-4.707c0-0.705-0.479-1.042-1.437-1.042v6.791C10.27,56.184,10.75,55.816,10.75,55.142 M31.635,66.189h-4.313V46.602
	h4.313V66.189z M16.724,66.189V46.602h4.2v7.215c2.143,0,3.607,0.198,4.397,0.621c0.817,0.395,1.184,1.354,1.184,2.847v5.438
	c0,1.325-0.395,2.229-1.184,2.734c-0.789,0.508-2.198,0.732-4.228,0.732H16.724L16.724,66.189z M20.924,56.635v6.764
	c0.93,0,1.381-0.309,1.381-0.957v-4.903c0-0.621-0.31-0.902-0.986-0.902L20.924,56.635L20.924,56.635z M33.523,66.189V46.602h7.976
	v2.508h-3.776v4.707c2.142,0,3.607,0.226,4.425,0.621c0.789,0.423,1.211,1.354,1.211,2.847v5.438c0,1.129-0.338,1.973-1.014,2.594
	c-0.677,0.593-2.058,0.875-4.143,0.875L33.523,66.189L33.523,66.189z M39.16,62.355v-4.707c0-0.676-0.423-1.015-1.296-1.015h-0.141
	v6.765C38.681,63.428,39.16,63.061,39.16,62.355 M57.086,66.189h-4.284l-0.733-5.242H50.18l-0.733,5.242h-4.284l3.213-19.589h5.496
	L57.086,66.189z M51.73,58.213l-0.62-5.834l-0.592,5.834H51.73z M71.15,66.189h-8.398V46.602h8.344v2.508h-4.031v5.298h3.662v2.395
	h-3.662v6.878h4.086V66.189L71.15,66.189z M82.283,53.45h-3.918v-3.861c0-0.311-0.197-0.479-0.592-0.479
	c-0.424,0-0.621,0.168-0.621,0.479v13.556c0,0.311,0.197,0.479,0.621,0.479c0.395,0,0.592-0.17,0.592-0.479v-4.848h3.918v4.989
	c0,0.93-0.451,1.663-1.354,2.254c-0.931,0.535-1.945,0.815-3.101,0.815c-3.326,0-4.989-1.153-4.989-3.521V50.236
	c0-2.537,1.663-3.805,4.989-3.805c2.987,0,4.453,1.154,4.453,3.467L82.283,53.45L82.283,53.45z M93.191,49.139h-2.396v17.051h-4.313
	V49.139h-2.396v-2.537h9.104v2.537H93.191z M95.023,66.189V46.602h4.197v7.215c2.143,0,3.608,0.226,4.397,0.621
	c0.815,0.423,1.211,1.381,1.211,2.847v5.438c0,1.156-0.338,2.03-1.015,2.594c-0.678,0.593-2.059,0.875-4.143,0.875L95.023,66.189
	L95.023,66.189z M100.631,62.355v-4.707c0-0.676-0.422-1.015-1.268-1.015h-0.143v6.765
	C100.152,63.398,100.631,63.061,100.631,62.355"/>
<path d="M9.482,59.115v7.215H5V46.46h4.65c0.902,0,1.691,0.058,2.368,0.169c0.676,0.112,1.24,0.282,1.69,0.507
	c0.479,0.254,0.817,0.62,1.043,1.1c0.226,0.507,0.338,1.1,0.338,1.833v5.411c0,1.353-0.367,2.281-1.127,2.847
	c-0.367,0.281-0.93,0.508-1.719,0.619C11.511,59.059,10.581,59.115,9.482,59.115 M9.199,66.049v-7.215H9.34
	c1.156,0,2.086-0.057,2.847-0.17c0.732-0.113,1.268-0.311,1.606-0.564c0.677-0.506,1.015-1.352,1.015-2.62v-5.412
	c0-0.705-0.113-1.24-0.31-1.691c-0.197-0.451-0.507-0.761-0.93-0.985c-0.423-0.197-0.959-0.366-1.607-0.479
	s-1.409-0.169-2.311-0.169H5.282v19.307H9.199z M10.608,55.142v-4.707c0-0.311-0.084-0.535-0.282-0.677
	c-0.197-0.141-0.479-0.197-0.845-0.226v6.481C10.243,55.986,10.608,55.676,10.608,55.142 M10.891,50.435v4.707
	c0,0.761-0.507,1.155-1.551,1.155H9.199V49.25H9.34c0.507,0,0.874,0.085,1.127,0.282C10.75,49.729,10.891,50.04,10.891,50.435
	 M31.635,66.33h-4.453V46.46h4.594v19.87H31.635z M27.463,66.049h4.031V46.742h-4.031V66.049z M16.584,66.189V46.46h4.481v7.215
	c1.015,0,1.889,0.057,2.594,0.142c0.761,0.113,1.352,0.254,1.747,0.479c0.423,0.198,0.732,0.564,0.958,1.101
	c0.197,0.479,0.31,1.126,0.31,1.889v5.438c0,0.676-0.112,1.24-0.31,1.719c-0.226,0.48-0.535,0.847-0.958,1.129
	c-0.395,0.253-0.986,0.449-1.691,0.563c-0.705,0.142-1.579,0.197-2.594,0.197h-4.538L16.584,66.189L16.584,66.189z M16.865,46.742
	v19.307h4.256c0.986,0,1.861-0.085,2.538-0.197c0.704-0.112,1.211-0.311,1.606-0.535c0.366-0.227,0.648-0.563,0.817-0.986
	c0.197-0.423,0.311-0.958,0.311-1.605v-5.44c0-0.732-0.113-1.325-0.311-1.803c-0.169-0.423-0.451-0.763-0.817-0.932
	c-0.367-0.196-0.931-0.338-1.635-0.45c-0.733-0.084-1.635-0.142-2.706-0.142h-0.141v-7.214h-3.918V46.742z M21.065,56.748v6.482
	c0.366,0,0.648-0.086,0.817-0.198c0.198-0.142,0.282-0.339,0.282-0.62v-4.904c0-0.254-0.056-0.451-0.197-0.564
	c-0.113-0.111-0.338-0.196-0.62-0.196L21.065,56.748L21.065,56.748L21.065,56.748z M20.783,63.398v-6.934h0.563
	c0.367,0,0.648,0.085,0.817,0.282c0.197,0.168,0.31,0.422,0.31,0.76v4.904c0,0.366-0.141,0.647-0.423,0.846
	c-0.254,0.17-0.621,0.281-1.127,0.281h-0.141L20.783,63.398L20.783,63.398z M33.382,66.189V46.46h8.258v2.79h-3.776v4.425
	c2.085,0,3.523,0.227,4.34,0.621c0.451,0.227,0.761,0.593,0.986,1.1c0.197,0.479,0.31,1.126,0.31,1.888v5.439
	c0,0.563-0.084,1.071-0.253,1.522c-0.197,0.448-0.451,0.846-0.789,1.153c-0.367,0.312-0.902,0.537-1.606,0.707
	c-0.705,0.142-1.579,0.226-2.649,0.226h-4.82L33.382,66.189L33.382,66.189z M33.664,46.742v19.307h4.538
	c1.042,0,1.888-0.085,2.593-0.227c0.648-0.141,1.127-0.365,1.465-0.648c0.31-0.281,0.563-0.619,0.705-1.014
	c0.169-0.424,0.254-0.902,0.254-1.438v-5.44c0-0.732-0.113-1.325-0.31-1.775c-0.169-0.45-0.451-0.761-0.817-0.958
	c-0.789-0.395-2.254-0.592-4.368-0.592h-0.141v-4.989h3.777v-2.226H33.664z M39.019,62.355v-4.707c0-0.311-0.084-0.534-0.282-0.676
	c-0.169-0.142-0.479-0.228-0.873-0.228v6.512c0.394-0.028,0.648-0.112,0.845-0.228C38.906,62.893,39.019,62.666,39.019,62.355
	 M39.301,57.648v4.707c0,0.396-0.141,0.678-0.423,0.901c-0.253,0.17-0.647,0.281-1.155,0.281l-0.142-0.027v-7.046h0.282
	c0.479,0,0.817,0.112,1.071,0.282C39.188,56.945,39.301,57.256,39.301,57.648 M57.086,66.33h-4.397l-0.732-5.27h-1.664l-0.732,5.27
	h-4.566c1.099-6.623,2.17-13.247,3.27-19.87h5.722c1.099,6.596,2.199,13.247,3.269,19.87H57.086z M52.943,66.049h3.973L53.76,46.742
	h-5.27l-3.157,19.307h4.002l0.705-5.271h2.171L52.943,66.049z M51.59,58.072l-0.479-4.313l-0.423,4.313H51.59z M51.279,52.352
	l0.62,6.004h-1.522l0.733-7.385L51.279,52.352z M71.178,66.33h-8.568V46.46h8.654v2.79h-4.061v5.018h3.664v2.648h-3.664v6.596h4.113
	v2.818H71.178L71.178,66.33z M62.893,66.049h8.146v-2.227h-4.114v-7.188h3.663v-2.086h-3.663v-5.581h4.059V46.74h-8.088v19.309
	H62.893z M82.313,53.591h-4.06v-4.003c0-0.111-0.056-0.196-0.114-0.253c-0.056-0.056-0.197-0.085-0.365-0.085
	c-0.17,0-0.311,0.028-0.365,0.085c-0.085,0.057-0.112,0.142-0.112,0.253v13.557c0,0.113,0.027,0.17,0.112,0.227
	c0.056,0.057,0.197,0.085,0.365,0.085c0.17,0,0.311-0.028,0.365-0.085c0.06-0.057,0.114-0.112,0.114-0.227v-4.987h4.199v5.129
	c0,0.479-0.142,0.931-0.366,1.325c-0.254,0.394-0.592,0.73-1.07,1.014c-0.479,0.311-0.988,0.508-1.496,0.648
	c-0.535,0.143-1.099,0.227-1.688,0.227c-1.69,0-2.959-0.311-3.806-0.902c-0.901-0.621-1.324-1.551-1.324-2.762v-12.6
	c0-1.324,0.423-2.312,1.296-2.988c0.875-0.647,2.144-0.958,3.834-0.958c3.071,0,4.622,1.185,4.622,3.608v3.691L82.313,53.591
	L82.313,53.591z M78.535,53.31h3.605v-3.41c0-2.228-1.437-3.326-4.312-3.326c-1.636,0-2.849,0.31-3.638,0.931
	c-0.815,0.593-1.211,1.494-1.211,2.733v12.599c0,1.128,0.396,1.975,1.185,2.51c0.817,0.592,2.028,0.872,3.664,0.872
	c0.563,0,1.101-0.084,1.606-0.225c0.508-0.113,0.986-0.339,1.438-0.595c0.423-0.279,0.731-0.59,0.958-0.957
	c0.227-0.338,0.311-0.731,0.311-1.155v-4.849h-3.607v4.707c0,0.197-0.084,0.338-0.227,0.451c-0.111,0.113-0.281,0.17-0.535,0.17
	c-0.226,0-0.422-0.057-0.535-0.17c-0.17-0.085-0.227-0.254-0.227-0.451V49.588c0-0.225,0.057-0.366,0.227-0.479
	c0.113-0.085,0.311-0.142,0.535-0.142c0.254,0,0.424,0.057,0.535,0.142c0.143,0.112,0.227,0.282,0.227,0.479V53.31L78.535,53.31z
	 M93.191,49.278h-2.256V66.33h-4.595V49.278h-2.396v-2.819h9.412v2.819H93.191z M90.795,48.997h2.283v-2.255h-8.85v2.255h2.396
	v17.052h4.03V48.997H90.795z M94.882,66.189V46.46h4.481v7.215c1.016,0,1.889,0.057,2.594,0.142
	c0.762,0.113,1.325,0.282,1.747,0.479c0.423,0.227,0.761,0.593,0.96,1.101c0.225,0.507,0.336,1.126,0.336,1.889v5.438
	c0,0.594-0.111,1.101-0.281,1.551c-0.169,0.451-0.451,0.847-0.789,1.156c-0.365,0.281-0.9,0.535-1.605,0.676
	c-0.705,0.142-1.579,0.228-2.621,0.228h-4.819L94.882,66.189L94.882,66.189z M95.163,46.742v19.307h4.538
	c1.016,0,1.859-0.085,2.537-0.227c0.678-0.141,1.156-0.338,1.494-0.619c0.311-0.281,0.563-0.621,0.731-1.043
	c0.142-0.395,0.228-0.902,0.228-1.438v-5.44c0-0.706-0.086-1.325-0.282-1.775c-0.197-0.45-0.479-0.761-0.845-0.958
	c-0.366-0.196-0.932-0.338-1.664-0.45c-0.705-0.084-1.606-0.142-2.678-0.142h-0.142v-7.215H95.163z M100.49,62.355v-4.707
	c0-0.311-0.084-0.534-0.252-0.676c-0.198-0.142-0.479-0.228-0.875-0.228v6.481c0.367,0,0.648-0.084,0.846-0.226
	C100.407,62.859,100.49,62.639,100.49,62.355 M100.771,57.648v4.707c0,0.396-0.111,0.678-0.394,0.901
	c-0.282,0.17-0.649,0.281-1.157,0.281H99.08v-7.073h0.281c0.451,0,0.818,0.112,1.043,0.282
	C100.66,56.945,100.771,57.256,100.771,57.648"/>
<path d="M32.988,74.813h-2.48v3.158h-0.986v-7.074h3.89v0.731h-2.903v2.424h2.48L32.988,74.813L32.988,74.813z M36.061,77.971
	h-1.015v-7.074h1.015V77.971z M41.358,76.167c0-0.31-0.085-0.563-0.282-0.788c-0.169-0.197-0.507-0.396-0.958-0.564
	c-0.677-0.196-1.184-0.479-1.55-0.789c-0.338-0.338-0.535-0.789-0.535-1.323c0-0.563,0.225-1.017,0.592-1.382
	c0.395-0.365,0.901-0.535,1.522-0.535c0.648,0,1.184,0.197,1.578,0.593c0.395,0.422,0.592,0.901,0.563,1.521v0.028H41.33
	c0-0.423-0.112-0.761-0.31-1.015c-0.226-0.253-0.535-0.367-0.874-0.367c-0.366,0-0.621,0.086-0.817,0.311
	c-0.197,0.228-0.282,0.508-0.282,0.847c0,0.31,0.084,0.563,0.282,0.761c0.226,0.198,0.563,0.395,1.042,0.563
	c0.648,0.228,1.127,0.479,1.466,0.816c0.338,0.34,0.507,0.79,0.507,1.325c0,0.593-0.198,1.044-0.592,1.382s-0.931,0.508-1.55,0.508
	c-0.62,0-1.184-0.17-1.635-0.537c-0.451-0.364-0.676-0.9-0.648-1.604v-0.028h0.958c0,0.479,0.112,0.846,0.366,1.1
	c0.254,0.227,0.563,0.338,0.958,0.338c0.338,0,0.647-0.113,0.845-0.311C41.246,76.814,41.358,76.533,41.358,76.167 M48.828,77.971
	h-0.986v-3.129H45.08v3.129h-0.986v-7.074h0.986v3.187h2.762v-3.187h0.986V77.971z M50.491,76.109c0-0.422,0.084-0.76,0.309-1.041
	c0.198-0.312,0.508-0.621,0.902-0.933c-0.226-0.309-0.366-0.592-0.479-0.844c-0.112-0.254-0.168-0.535-0.168-0.79
	c0-0.563,0.141-0.986,0.451-1.27c0.282-0.309,0.677-0.449,1.185-0.449c0.451,0,0.817,0.142,1.099,0.423
	c0.282,0.31,0.423,0.647,0.423,1.071c0,0.31-0.056,0.592-0.197,0.816s-0.338,0.451-0.592,0.678l-0.535,0.422l1.438,1.889h0.028
	c0.112-0.169,0.197-0.395,0.226-0.646c0.056-0.228,0.113-0.479,0.113-0.763h0.818c0,0.423-0.028,0.817-0.142,1.185
	c-0.113,0.367-0.282,0.678-0.507,0.959l0.874,1.156h-1.155l-0.395-0.509c-0.226,0.197-0.507,0.338-0.761,0.451
	c-0.282,0.084-0.563,0.142-0.874,0.142c-0.62,0-1.127-0.171-1.493-0.537C50.687,77.152,50.491,76.701,50.491,76.109 M52.576,77.322
	c0.197,0,0.423-0.028,0.62-0.113c0.197-0.084,0.367-0.197,0.536-0.338l-1.55-2.086l-0.113,0.057
	c-0.226,0.254-0.366,0.479-0.451,0.678c-0.084,0.197-0.113,0.396-0.113,0.563c0,0.367,0.084,0.648,0.254,0.874
	C51.956,77.209,52.238,77.322,52.576,77.322 M51.984,72.475c0,0.17,0.028,0.338,0.113,0.535c0.056,0.17,0.169,0.367,0.31,0.564
	l0.507-0.395c0.169-0.113,0.282-0.255,0.338-0.396c0.056-0.142,0.084-0.31,0.084-0.479c0-0.226-0.056-0.394-0.169-0.535
	c-0.113-0.141-0.282-0.226-0.507-0.226c-0.197,0-0.366,0.084-0.507,0.253C52.041,71.996,51.984,72.221,51.984,72.475 M60.721,74.813
	h-2.479v3.158h-0.986v-7.074h3.889v0.731h-2.901v2.424h2.479v0.761H60.721z M67.458,75.406c0,0.816-0.226,1.494-0.677,1.943
	c-0.451,0.479-1.043,0.707-1.805,0.707c-0.761,0-1.353-0.228-1.804-0.707c-0.422-0.449-0.647-1.127-0.647-1.943v-1.945
	c0-0.845,0.227-1.494,0.647-1.973c0.451-0.479,1.043-0.705,1.775-0.705c0.788,0,1.381,0.226,1.831,0.705
	c0.451,0.479,0.678,1.128,0.678,1.973L67.458,75.406L67.458,75.406z M66.499,73.434c0-0.594-0.142-1.072-0.394-1.41
	c-0.282-0.309-0.648-0.449-1.156-0.449c-0.451,0-0.816,0.142-1.071,0.449c-0.253,0.338-0.396,0.816-0.396,1.41v1.974
	c0,0.618,0.143,1.099,0.396,1.407c0.254,0.312,0.62,0.479,1.101,0.479c0.479,0,0.845-0.169,1.127-0.479
	c0.252-0.31,0.395-0.789,0.395-1.407L66.499,73.434L66.499,73.434z M74.023,75.406c0,0.816-0.225,1.494-0.676,1.943
	c-0.449,0.479-1.043,0.707-1.832,0.707c-0.732,0-1.324-0.228-1.775-0.707c-0.45-0.449-0.676-1.127-0.676-1.943v-1.945
	c0-0.845,0.226-1.494,0.676-1.973c0.451-0.479,1.043-0.705,1.775-0.705c0.762,0,1.383,0.226,1.832,0.705
	c0.451,0.479,0.676,1.128,0.676,1.973V75.406z M73.039,73.434c0-0.594-0.113-1.072-0.396-1.41c-0.252-0.309-0.619-0.449-1.127-0.449
	c-0.451,0-0.816,0.142-1.07,0.449c-0.254,0.338-0.396,0.816-0.396,1.41v1.974c0,0.618,0.142,1.099,0.396,1.407
	c0.253,0.312,0.619,0.479,1.07,0.479c0.508,0,0.875-0.169,1.127-0.479c0.282-0.31,0.396-0.789,0.396-1.407V73.434z M75.828,77.971
	v-7.074h2.002c0.789,0,1.408,0.281,1.889,0.847c0.479,0.563,0.705,1.297,0.705,2.198v0.985c0,0.901-0.227,1.636-0.705,2.198
	s-1.1,0.846-1.889,0.846H75.828L75.828,77.971z M76.814,71.629v5.58h1.016c0.507,0,0.873-0.197,1.184-0.619
	c0.282-0.451,0.424-0.986,0.424-1.664v-1.014c0-0.648-0.142-1.213-0.424-1.635c-0.311-0.424-0.677-0.649-1.184-0.649L76.814,71.629
	L76.814,71.629z"/>
<polygon points="31.691,33.297 32.227,34.96 34.002,34.96 32.565,36.003 33.129,37.694 31.691,36.652 30.254,37.694 30.817,36.003 
	29.38,34.96 31.156,34.96 "/>
<polygon points="78.253,33.297 78.816,34.96 80.592,34.96 79.154,36.003 79.689,37.694 78.253,36.652 76.843,37.694 77.379,36.003 
	75.941,34.96 77.717,34.96 "/>
<polygon points="78.253,33.382 78.197,33.402 78.755,35.045 80.328,35.045 79.055,35.971 79.529,37.473 78.253,36.546 
	77.004,37.469 77.479,35.971 76.204,35.045 77.779,35.045 78.309,33.4 78.253,33.382 78.197,33.402 78.253,33.382 78.197,33.365 
	77.693,34.929 75.844,34.929 77.342,36.017 76.783,37.779 78.254,36.691 79.75,37.775 79.191,36.017 80.691,34.929 78.84,34.929 
	78.252,33.196 78.197,33.365 "/>
<polygon fill="#00B7CE" points="54.972,88.512 56.016,91.725 59.396,91.725 56.662,93.697 57.705,96.911 54.972,94.91 
	52.238,96.911 53.309,93.697 50.576,91.725 53.929,91.725 "/>
<path d="M55.028,88.512l1.044,3.156h3.466l-2.819,2.059l1.102,3.297L55,94.966l-2.818,2.058l1.071-3.297l-2.819-2.059h3.495
	L55,88.371L55.028,88.512z M55.986,91.725L55,88.652l-1.015,3.129l-3.298-0.028l2.678,1.944l-1.015,3.101L55,94.881l2.65,1.917
	l-1.043-3.101l2.677-1.944l-3.298,0.028V91.725L55.986,91.725z"/>
<path fill="#00B7CE" d="M41.415,34.848c-0.169,0-0.338,0.056-0.451,0.169c-0.113,0.112-0.197,0.281-0.197,0.451
	c0,0.168,0.084,0.339,0.197,0.479c0.112,0.113,0.282,0.169,0.451,0.169s0.338-0.056,0.451-0.169c0.112-0.141,0.197-0.31,0.197-0.479
	c0-0.169-0.084-0.338-0.197-0.451C41.753,34.904,41.584,34.848,41.415,34.848 M41.049,35.103c0.113-0.085,0.226-0.142,0.366-0.142
	c0.141,0,0.254,0.057,0.366,0.142c0.085,0.111,0.141,0.226,0.141,0.366c0,0.142-0.056,0.282-0.141,0.366
	c-0.112,0.084-0.225,0.143-0.366,0.143s-0.253-0.058-0.366-0.143c-0.084-0.084-0.141-0.225-0.141-0.366
	C40.907,35.326,40.964,35.214,41.049,35.103"/>
<path fill="#00B7CE" d="M41.246,35.299c0.056-0.027,0.113-0.056,0.169-0.056c0.085,0,0.142,0.028,0.169,0.056
	c0.056,0.057,0.085,0.112,0.085,0.169c0,0.084-0.028,0.142-0.085,0.168c-0.028,0.057-0.084,0.085-0.169,0.085
	c-0.056,0-0.113-0.028-0.169-0.085c-0.056-0.027-0.056-0.084-0.056-0.168C41.189,35.411,41.189,35.354,41.246,35.299"/>
<path fill="#FFFFFF" d="M41.31,35.363l0.082,0.164l0.038-0.018l0.002-0.001l-0.012-0.04v0.04l0.012-0.001l-0.012-0.04v0.04h0.006
	l0.003-0.02l-0.008,0.018l0.005,0.002l0.003-0.02l-0.008,0.018l0.034-0.068l-0.054,0.054l0.02,0.015l0.034-0.068l-0.054,0.054H41.4
	l0.007,0.008l0,0l0.049-0.026h-0.055l0.006,0.026l0.049-0.026h-0.055v0.003l0.053,0.005l-0.045-0.026l-0.008,0.021l0.053,0.005
	l-0.045-0.027l0.079,0.047l-0.041-0.082l-0.038,0.035l0.079,0.047l-0.041-0.082c-0.035,0.019-0.064,0.047-0.082,0.082l0.081,0.041
	l-0.04-0.082L41.365,35.5l0.081,0.041l-0.04-0.082l0.027,0.055l-0.012-0.06l-0.015,0.005l0.027,0.055l-0.012-0.06l0.002,0.012
	v-0.012h-0.001l0.002,0.012v-0.012h-0.003v0.06l0.027-0.055l-0.027-0.005v0.06l0.027-0.055l-0.001,0.002l0.001-0.002l0,0
	l-0.001,0.002l0.001-0.002l-0.008-0.007l-0.047-0.035l-0.056,0.111l0.099-0.074l-0.043-0.037l-0.056,0.111l0.099-0.074l-0.082,0.063
	l0.104-0.014l-0.021-0.049l-0.082,0.063l0.104-0.014v-0.03v-0.017H41.44l0.018,0.003v-0.002H41.44l0.018,0.003l-0.061-0.011
	l0.044,0.044l0.017-0.033l-0.061-0.011l0.044,0.044L41.31,35.363l0.082,0.164L41.31,35.363l-0.13-0.13
	c-0.04,0.04-0.069,0.093-0.081,0.14c-0.011,0.046-0.009,0.081-0.01,0.101c0.001,0.026-0.002,0.06,0.01,0.112
	c0.006,0.026,0.019,0.06,0.042,0.089c0.022,0.031,0.054,0.057,0.085,0.071l0.082-0.164l-0.129,0.13
	c0.056,0.058,0.139,0.108,0.239,0.108c0.048,0,0.099-0.008,0.151-0.033c0.052-0.024,0.098-0.072,0.124-0.124l-0.164-0.082
	l0.082,0.164c0.051-0.024,0.099-0.072,0.123-0.123c0.025-0.053,0.032-0.104,0.033-0.15c0-0.102-0.052-0.185-0.109-0.24l0,0
	c-0.061-0.061-0.143-0.089-0.239-0.09c-0.099,0.002-0.155,0.04-0.192,0.055l-0.048,0.035L41.31,35.363z"/>
<path fill="#00B7CE" d="M70.98,40.768c-0.142-0.311-0.281-0.621-0.422-0.932c-0.113-0.169-0.227-0.365-0.311-0.592
	c-0.113-0.226-0.227-0.507-0.311-0.761c-0.479-1.156-0.959-2.368-2.059-2.734c1.213-0.339,2.143-2.818,2.622-3.918
	c0.112-0.225,0.366-0.789,0.366-1.042c-0.762-0.366-1.719-0.113-2.453,0.198c-2.17,0.846-2.479,1.634-3.551,3.27
	c-0.705,1.1-3.016-0.112-4.707-0.958c-0.451-0.253-0.873-0.479-1.211-0.592c-0.086-0.056-0.17-0.085-0.282-0.113
	c-0.169-0.056-0.338-0.141-0.507-0.254c0-0.423,0.169-0.592,0.365-0.79c0.17-0.196,0.281-0.31,0.367-0.563
	c-0.509-0.198-0.931-0.141-1.438,0c-0.451,0.141-0.875,0.395-1.214,0.563c-0.309,0.198-0.479,0.143-0.759,0.028
	c-0.564-0.169-1.156-0.226-1.747-0.338c0.084-0.732,0.479-1.184,0.789-1.522c0.253-0.281,0.507-0.534,0.395-0.958
	c-0.536-0.196-1.268,0-1.775,0.142c-1.071,0.31-2.255,0.874-2.678,1.156c-0.677,0.395-0.902,0.619-1.042,0.761
	c-0.141,0.169-0.17,0.197-0.818,0.282c-1.071,0.111-2.283,0.366-3.466,0.705c-1.522,0.479-6.398,2.396-6.511,4.198
	c0.93,1.241,2.649,2.228,4.03,2.875c2.085,1.042,4.453,1.775,6.116,2.058c0.141,0.027,0.282,0.056,0.451,0.056
	c0.338,0.028,0.705,0.084,0.874,0.142c1.297,0.931,3.974,2.48,5.551,1.944c-0.027-0.423-0.196-0.592-0.451-0.874
	c-0.254-0.282-0.566-0.592-0.735-1.155c0.31-0.142,2.313-0.677,2.424-0.677c0.057,0,0.17,0.057,0.338,0.142
	c0.789,0.395,1.381,0.535,2.283,0.479c-0.057-0.31-0.113-0.395-0.338-0.648c-0.143-0.169-0.311-0.366-0.367-0.789
	c0.451-0.339,1.1-0.62,1.607-0.958c1.127-0.789,2.818-1.974,4.34-0.874c0.366,0.226,0.593,0.535,0.874,0.846
	c0.338,0.423,0.705,0.874,1.353,1.325C68.134,40.625,69.6,41.302,70.98,40.768"/>
<path d="M41.415,35.158c-0.084,0-0.169,0.056-0.226,0.113c-0.056,0.056-0.084,0.111-0.084,0.225c0,0.058,0.028,0.142,0.084,0.198
	s0.141,0.085,0.226,0.085s0.169-0.028,0.226-0.085c0.056-0.057,0.084-0.141,0.084-0.198c0-0.113-0.028-0.169-0.084-0.225
	C41.584,35.214,41.5,35.158,41.415,35.158"/>
<path d="M41.415,35.299l-0.056,0.028l-0.057,0.028l-0.028,0.057c-0.028,0.028-0.028,0.028-0.028,0.084l0.028,0.028v0.027
	l0.028,0.028l0.057,0.056h0.056h0.056h0.028l0.028-0.056l0.028-0.056l0.028-0.028c0-0.056,0-0.056-0.028-0.084l-0.028-0.057
	l-0.056-0.028L41.415,35.299z M41.246,35.045c0.056,0,0.113-0.027,0.169-0.027c0.057,0,0.113,0.027,0.169,0.027
	c0.056,0.028,0.113,0.058,0.141,0.113c0.056,0.028,0.085,0.084,0.113,0.141c0.028,0.057,0.028,0.113,0.028,0.197
	c0,0.028,0,0.084-0.028,0.142c-0.028,0.056-0.056,0.112-0.113,0.169c-0.028,0.027-0.056,0.056-0.112,0.084h-0.028
	c-0.056,0.027-0.112,0.027-0.169,0.027c-0.056,0-0.113,0-0.169-0.027c-0.056-0.028-0.113-0.058-0.141-0.084
	c-0.056-0.057-0.084-0.084-0.113-0.142v-0.027c-0.028-0.057-0.028-0.112-0.028-0.142c0-0.084,0-0.141,0.028-0.197
	c0.028-0.056,0.056-0.111,0.113-0.141C41.133,35.103,41.189,35.073,41.246,35.045"/>
<path fill="#00B7CE" d="M44.741,38.117c0.507-0.197,0.958-0.535,1.297-0.987c0.282-0.45,0.479-0.985,0.479-1.578
	c0-0.535-0.169-1.07-0.479-1.521c-0.282-0.451-0.705-0.79-1.212-1.015l-0.338-0.142l0.253,0.254h0.028v0.028
	c0.395,0.254,0.705,0.621,0.93,1.043c0.226,0.395,0.367,0.874,0.367,1.353c0,0.508-0.141,0.986-0.395,1.382
	c-0.226,0.45-0.563,0.816-1.014,1.07l-0.592,0.367L44.741,38.117z M45.924,37.046c-0.169,0.198-0.338,0.396-0.563,0.564
	c0.169-0.169,0.31-0.366,0.451-0.592c0.253-0.451,0.395-0.931,0.395-1.465c0-0.509-0.142-0.987-0.367-1.41
	c-0.113-0.227-0.254-0.396-0.395-0.593c0.169,0.17,0.338,0.366,0.479,0.564c0.282,0.423,0.452,0.902,0.452,1.437
	C46.375,36.116,46.206,36.623,45.924,37.046"/>
<path d="M45.53,37.835c-0.226,0.169-0.479,0.311-0.761,0.423l-0.648,0.253c-0.056,0.028-0.141,0-0.169-0.056
	c-0.028-0.084-0.028-0.169,0.056-0.197l0.592-0.366c0.197-0.142,0.367-0.282,0.535-0.451c0.169-0.169,0.31-0.367,0.423-0.564
	c0.112-0.196,0.197-0.423,0.253-0.647c0.057-0.197,0.084-0.451,0.084-0.677s-0.028-0.45-0.056-0.676
	c-0.056-0.197-0.169-0.423-0.253-0.621c-0.113-0.196-0.226-0.365-0.395-0.534c-0.169-0.17-0.338-0.311-0.535-0.451
	c-0.084-0.084-0.197-0.198-0.282-0.282c-0.028-0.057-0.056-0.112-0.028-0.169c0.028-0.058,0.113-0.085,0.169-0.058l0.366,0.142
	c0.253,0.085,0.479,0.254,0.705,0.423s0.423,0.396,0.563,0.621c0.169,0.253,0.282,0.508,0.367,0.79
	c0.084,0.253,0.113,0.535,0.113,0.817c0,0.31-0.028,0.592-0.113,0.873c-0.084,0.282-0.226,0.536-0.367,0.762
	C45.98,37.441,45.784,37.639,45.53,37.835"/>
<path fill="#231F20" d="M93.35,10.461h0.816c0.518,0,0.854,0.12,0.854,0.637c0,0.3-0.133,0.673-0.77,0.673h-0.9V10.461z
	 M92.572,14.087h0.777v-1.742h0.637c0.877,0,0.926,0.396,0.926,0.781c0.035,0.684,0,0.805,0.156,0.961h0.803
	c-0.168-0.229-0.133-0.349-0.168-0.997c-0.037-0.409-0.061-0.912-0.6-1.008v-0.024c0.623-0.263,0.707-0.672,0.707-0.96
	c0-1.092-0.947-1.211-1.381-1.211h-1.857V14.087z M90.699,12.022c0-1.98,1.5-3.565,3.408-3.565c1.906,0,3.408,1.585,3.408,3.565
	c0,1.981-1.502,3.565-3.408,3.565C92.199,15.587,90.699,14.003,90.699,12.022 M89.908,12.022c0,2.317,1.846,4.199,4.199,4.199
	c2.352,0,4.197-1.882,4.197-4.199c0-2.316-1.846-4.199-4.197-4.199C91.754,7.823,89.908,9.707,89.908,12.022"/>
</svg>
